# File created by Blade
# Date/Time:  Fri Jan 16 19:14:28 2015
# Frame Rate: 120.000 fps
#------------------------------------------------------
:FULLY-SPECIFIED
:DEGREES
466
root 18.924290 35.644579 -23.187141 -164.689592 -1.721780 -178.425501
Spine -30.817756 1.521152 -0.055729
Head 23.973454 -5.360522 -0.139307
LeftShoulder -32.043429 -51.996883 58.390463
LeftArm 31.312762 -61.595526 -3.386887
LeftForeArm -10.285113 -0.000000 111.469151
LeftHand -17.913004 0.000000 -23.248328
LeftHandThumb1 -26.253704 0.000000 33.147579
RightShoulder -21.192531 17.260852 -38.022450
RightArm 36.780305 79.815401 3.494076
RightForeArm -84.674941 -0.000000 127.785905
RightHand -6.303112 -0.000000 41.907976
RightHandThumb1 -24.326973 -0.000000 -32.862282
LeftUpLeg -3.966707 6.944603 0.360147
LeftLeg -7.718925 -0.000000 0.000000
LeftFoot -21.391449 28.053518 -16.572711
LeftToeBase 23.667867 -0.000000 -0.000000
RightUpLeg -5.647014 -9.721267 1.732670
RightLeg -4.111973 -0.000000 0.000000
RightFoot -20.958595 -22.426398 20.928441
RightToeBase 22.412405 -0.000000 -0.000000
467
root 18.921664 35.644686 -23.200692 -164.724241 -1.696293 -178.435293
Spine -30.841521 1.518722 -0.069289
Head 24.156460 -5.268484 -0.111937
LeftShoulder -32.062820 -51.941362 58.417734
LeftArm 31.206782 -61.617863 -3.340003
LeftForeArm -10.315828 -0.000000 111.489024
LeftHand -17.896127 -0.000000 -23.224455
LeftHandThumb1 -26.253704 0.000000 33.147579
RightShoulder -21.169501 17.281258 -38.081028
RightArm 36.755622 79.815353 3.506031
RightForeArm -84.637802 0.000000 127.804705
RightHand -6.332674 -0.000000 41.906434
RightHandThumb1 -24.326973 -0.000000 -32.862282
LeftUpLeg -3.922863 6.966425 0.346600
LeftLeg -7.684754 -0.000000 0.000000
LeftFoot -21.427687 28.038215 -16.608656
LeftToeBase 23.665888 -0.000000 -0.000000
RightUpLeg -5.597320 -9.684352 1.697341
RightLeg -4.095956 -0.000000 0.000000
RightFoot -20.986199 -22.403933 20.964046
RightToeBase 22.442817 -0.000000 -0.000000
468
root 18.919346 35.644721 -23.212819 -164.750164 -1.675850 -178.442019
Spine -30.869602 1.517709 -0.079037
Head 24.314994 -5.192059 -0.099559
LeftShoulder -32.086618 -51.954879 58.451790
LeftArm 31.067374 -61.595482 -3.229745
LeftForeArm -10.466179 0.000000 111.517343
LeftHand -17.877244 0.000000 -23.210664
LeftHandThumb1 -26.253704 0.000000 33.147579
RightShoulder -21.129680 17.360280 -38.179288
RightArm 36.297678 79.765856 3.110143
RightForeArm -84.495141 -0.000000 127.891540
RightHand -6.433732 -0.000000 41.938601
RightHandThumb1 -24.326973 -0.000000 -32.862282
LeftUpLeg -3.886114 6.959301 0.341144
LeftLeg -7.661266 -0.000000 0.000000
LeftFoot -21.467651 28.049496 -16.659550
LeftToeBase 23.694951 -0.000000 -0.000000
RightUpLeg -5.555452 -9.659002 1.672085
RightLeg -4.086692 -0.000000 0.000000
RightFoot -20.996133 -22.396062 20.995515
RightToeBase 22.385446 -0.000000 -0.000000
469
root 18.918372 35.644487 -23.224550 -164.781760 -1.644235 -178.435704
Spine -30.891228 1.528734 -0.084898
Head 24.474263 -5.131585 -0.092432
LeftShoulder -32.112467 -51.978378 58.527635
LeftArm 30.860045 -61.561452 -3.073146
LeftForeArm -10.766476 -0.000000 111.562963
LeftHand -17.787041 -0.000000 -23.214062
LeftHandThumb1 -26.253704 0.000000 33.147579
RightShoulder -21.099647 17.370877 -38.199587
RightArm 36.268938 79.810954 3.100357
RightForeArm -84.209543 -0.000000 127.994942
RightHand -6.481181 0.000000 41.878408
RightHandThumb1 -24.326973 -0.000000 -32.862282
LeftUpLeg -3.836622 6.955991 0.349649
LeftLeg -7.646996 -0.000000 0.000000
LeftFoot -21.498940 28.070572 -16.681795
LeftToeBase 23.619135 -0.000000 -0.000000
RightUpLeg -5.512136 -9.626410 1.665133
RightLeg -4.081380 -0.000000 0.000000
RightFoot -21.014529 -22.424650 21.001403
RightToeBase 22.406022 -0.000000 -0.000000
470
root 18.916014 35.644283 -23.235933 -164.815940 -1.619488 -178.442714
Spine -30.905301 1.533395 -0.092045
Head 24.621185 -5.062099 -0.110791
LeftShoulder -32.120026 -52.003063 58.545083
LeftArm 30.704417 -61.537722 -2.925593
LeftForeArm -10.990250 -0.000000 111.621135
LeftHand -17.845470 0.000000 -23.182237
LeftHandThumb1 -26.253704 0.000000 33.147579
RightShoulder -21.113626 17.376432 -38.272789
RightArm 36.426238 79.844665 3.303414
RightForeArm -83.990190 0.000000 128.188398
RightHand -6.561139 -0.000000 41.836814
RightHandThumb1 -24.326973 -0.000000 -32.862282
LeftUpLeg -3.791729 6.966527 0.341046
LeftLeg -7.623574 -0.000000 0.000000
LeftFoot -21.531739 28.076333 -16.719245
LeftToeBase 23.617349 -0.000000 -0.000000
RightUpLeg -5.469923 -9.634828 1.645036
RightLeg -4.064735 -0.000000 0.000000
RightFoot -21.028345 -22.396115 21.024526
RightToeBase 22.396389 -0.000000 -0.000000
471
root 18.913716 35.643747 -23.248230 -164.857693 -1.600495 -178.445206
Spine -30.906235 1.531507 -0.096926
Head 24.743526 -4.996499 -0.096473
LeftShoulder -32.141852 -52.017377 58.571914
LeftArm 30.592692 -61.535163 -2.827772
LeftForeArm -11.309801 -0.000000 111.669546
LeftHand -17.798528 -0.000000 -23.190696
LeftHandThumb1 -26.253704 0.000000 33.147579
RightShoulder -21.108914 17.429174 -38.315462
RightArm 36.614804 79.921847 3.527436
RightForeArm -83.718890 -0.000000 128.374978
RightHand -6.567318 -0.000000 41.789611
RightHandThumb1 -24.326973 -0.000000 -32.862282
LeftUpLeg -3.730796 6.974221 0.339932
LeftLeg -7.615007 -0.000000 0.000000
LeftFoot -21.552579 28.063690 -16.747794
LeftToeBase 23.578503 -0.000000 -0.000000
RightUpLeg -5.410874 -9.640663 1.628392
RightLeg -4.062658 -0.000000 0.000000
RightFoot -21.017122 -22.383217 21.002082
RightToeBase 22.411481 -0.000000 -0.000000
